# xmcd CD database file
#
# Track frame offsets:
#	150
#	13602
#	31605
#	42315
#	55770
#	67967
#	80537
#	96540
#	109152
#	121792
#	136335
#	148520
#	170120
#	183262
#	197077
#	215485
#	229830
#	240645
#	251632
#	261992
#	274862
#	283922
#	295825
#	314050
#	325610
#
# Disc length: 4450 seconds
#
# Revision: 4
# Processed by: cddbd v1.5.1PL0 Copyright (c) Steve Scherf et al.
# Submitted via: CDex 1.51
#
DISCID=7a116019
DTITLE=Various Artist - Classic Country Recordings Volume 5 Disk 3
DYEAR=1995
DGENRE=Country
TTITLE0=Loretta Lynn - Coal Miner's Daughter
TTITLE1=Bobby Goldsboro - Honey
TTITLE2=Mac Davis - You're My Bestest Friend
TTITLE3=Glen Campbell - Southern Nights
TTITLE4=Roy Clark - The Tip Of My Fingers
TTITLE5=Mel McDanial - Big Ole Brew
TTITLE6=Billie Jo Spears - Blanket On The Ground
TTITLE7=Johnny Cash - Folsom Prison Blues
TTITLE8=Nat Stuckley - Sweet Thang
TTITLE9=Jeannie C. Riley - Harper Valley PTW
TTITLE10=Johnny Cash - I Walk The Line
TTITLE11=Tanya Tucker - Texas (When I Die)
TTITLE12=Ray Stevens - Misty
TTITLE13=Kenny Rogers and Dottie West - What Are We Doin' In Love
TTITLE14=Don Williams - I Believe In You
TTITLE15=Lee Greenwood - God Bless The USA
TTITLE16=Hank Williams - I Can't Help It
TTITLE17=Conway Twitty - Hello Darlin'
TTITLE18=Dave Dudley - Six Days On The Road
TTITLE19=Michael Martin Murphey - What's Forever For
TTITLE20=Johnny Rodriguez - Just Get Up And Close The Door
TTITLE21=Don Williams - I've Got A Winner In You
TTITLE22=Juice Newton - Break It To Me Gently
TTITLE23=Sammi Smith - Help Me Make It Through The Night
TTITLE24=Roger Miller - Dang Me
EXTD=YEAR: 1995
EXTT0=
EXTT1=
EXTT2=
EXTT3=
EXTT4=
EXTT5=
EXTT6=
EXTT7=
EXTT8=
EXTT9=
EXTT10=
EXTT11=
EXTT12=
EXTT13=
EXTT14=
EXTT15=
EXTT16=
EXTT17=
EXTT18=
EXTT19=
EXTT20=
EXTT21=
EXTT22=
EXTT23=
EXTT24=
PLAYORDER=
